<svg width="13" height="14" viewBox="0 0 13 14" fill="none" xmlns="http://www.w3.org/2000/svg">
<path d="M5.6967 0.25C5.88915 -0.0833336 6.37046 -0.0833336 6.56291 0.25L8.29533 3.25H11.7582C12.1431 3.25 12.3843 3.66667 12.1918 4L10.4594 7L12.1918 10C12.3841 10.3333 12.1431 10.75 11.7582 10.75H8.29533L6.56291 13.75C6.37049 14.0833 5.88922 14.0832 5.6967 13.75L3.96428 10.75H0.500409C0.115508 10.75 -0.124659 10.3333 0.0677914 10L1.79924 7L0.0677914 4C-0.124659 3.66667 0.115508 3.25 0.500409 3.25H3.96428L5.6967 0.25Z" fill="#B19435"/>
</svg>
